<svg width="100" height="100" viewBox="0 0 100 100" fill="none" xmlns="http://www.w3.org/2000/svg">
<path d="M19.9777 31.0064C19.7109 29.9959 20.4785 29.0078 21.5304 29.0078C22.2544 29.0078 22.8888 29.4892 23.0791 30.183L33.3243 67.5339C33.7047 68.9208 35.6904 68.9064 36.0504 67.5141L49.2057 16.6313C49.425 15.7829 50.6415 15.7922 50.8477 16.6438L63.1772 67.5816C63.5191 68.9939 65.5326 69.0192 65.9103 67.616L75.9851 30.1899C76.1728 29.4927 76.8087 29.0078 77.5353 29.0078C78.5853 29.0078 79.3524 29.9928 79.0884 31.0022L65.4536 83.1384C65.1962 84.1226 63.7864 84.1147 63.5402 83.1277L50.7158 31.7122C50.5402 31.0084 49.5355 31.0011 49.3497 31.7024L35.6861 83.2692C35.4278 84.244 34.0343 84.2434 33.7769 83.2684L19.9777 31.0064Z" fill="#001A40"/>
<path d="M11.46 52.8017C11.46 52.0282 12.0913 51.4013 12.87 51.4013H87.13C87.9087 51.4013 88.54 52.0282 88.54 52.8017C88.54 53.5751 87.9087 54.202 87.13 54.202H12.87C12.0913 54.202 11.46 53.5751 11.46 52.8017Z" fill="#001A40"/>
<path d="M3 60.2704C3 59.4969 3.63128 58.87 4.41 58.87H95.59C96.3687 58.87 97 59.4969 97 60.2704C97 61.0438 96.3687 61.6707 95.59 61.6707H4.41C3.63128 61.6707 3 61.0438 3 60.2704Z" fill="#001A40"/>
</svg>
