<svg width="173" height="29" viewBox="0 0 173 29" fill="none" xmlns="http://www.w3.org/2000/svg">
<path d="M5.55455 5.85247C5.46726 5.51958 5.71838 5.1941 6.06253 5.1941C6.2994 5.1941 6.50695 5.35267 6.56921 5.58122L9.92111 17.8851C10.0456 18.3419 10.6952 18.3372 10.813 17.8785L15.117 1.11713C15.1887 0.837652 15.5867 0.84072 15.6542 1.12127L19.688 17.9008C19.7999 18.366 20.4586 18.3743 20.5822 17.9121L23.8783 5.5835C23.9397 5.35384 24.1478 5.1941 24.3855 5.1941C24.729 5.1941 24.98 5.51858 24.8936 5.85108L20.4328 23.0254C20.3486 23.3496 19.8873 23.347 19.8068 23.0218L15.611 6.08496C15.5536 5.85311 15.2249 5.85073 15.1641 6.08173L10.6938 23.0684C10.6093 23.3896 10.1534 23.3894 10.0692 23.0682L5.55455 5.85247Z" fill="#3278CB"/>
<path d="M2.76784 13.0321C2.76784 12.7773 2.97437 12.5708 3.22914 12.5708H27.5246C27.7793 12.5708 27.9859 12.7773 27.9859 13.0321C27.9859 13.2868 27.7793 13.4934 27.5246 13.4934H3.22915C2.97437 13.4934 2.76784 13.2868 2.76784 13.0321Z" fill="#3278CB"/>
<path d="M0 15.4924C0 15.2376 0.206534 15.031 0.461306 15.031H30.2924C30.5472 15.031 30.7537 15.2376 30.7537 15.4924C30.7537 15.7471 30.5472 15.9537 30.2924 15.9537H0.461305C0.206533 15.9537 0 15.7471 0 15.4924Z" fill="#3278CB"/>
<path d="M39.3162 5.92507H40.5509L45.284 20.4846L51.4834 4.99902L57.2969 20.4846L62.6731 5.92507H63.9078L57.2969 23.7257L51.4834 8.13729L45.1039 23.7257L39.3162 5.92507Z" fill="#3278CB"/>
<path d="M75.5298 17.9637H66.5523C66.5523 19.267 66.9553 20.3302 67.7613 21.1534C68.5844 21.9765 69.5705 22.3881 70.7195 22.3881C71.5426 22.3881 72.2715 22.1737 72.906 21.745C73.5405 21.2991 74.0292 20.7161 74.3722 19.9958L75.2468 20.5103C74.8524 21.2648 74.2779 21.9336 73.5233 22.5167C72.7688 23.0826 71.8085 23.3656 70.6423 23.3656C69.0475 23.3656 67.787 22.8511 66.861 21.8222C65.9349 20.7761 65.4719 19.4642 65.4719 17.8865C65.4719 16.1544 65.9692 14.7997 66.9639 13.8222C67.9757 12.8447 69.1761 12.3559 70.5652 12.3559C71.9885 12.3559 73.1718 12.879 74.115 13.9251C75.0582 14.9712 75.5298 16.3174 75.5298 17.9637ZM66.6295 16.9862H74.4494C74.3122 15.9229 73.8835 15.0483 73.1632 14.3624C72.4601 13.6764 71.5941 13.3334 70.5652 13.3334C69.5191 13.3334 68.6359 13.685 67.9156 14.3881C67.1954 15.074 66.7667 15.9401 66.6295 16.9862Z" fill="#3278CB"/>
<path d="M91.7458 23.0826L89.4564 17.4492H82.151L79.8616 23.0826H78.6268L85.8551 5.4106L92.9805 23.0826H91.7458ZM82.5625 16.4202H89.0449L85.8294 8.29163L82.5625 16.4202Z" fill="#3278CB"/>
<path d="M96.7346 23.0826V12.5874H97.7635V13.9508C98.2265 12.8876 98.9982 12.3559 100.079 12.3559C100.49 12.3559 100.859 12.4417 101.185 12.6132L100.67 13.5392C100.482 13.402 100.224 13.3334 99.8985 13.3334C99.4012 13.3334 98.9896 13.4792 98.6638 13.7707C98.3551 14.0451 98.1408 14.4395 98.0207 14.954C97.9178 15.4513 97.8492 15.8715 97.8149 16.2145C97.7806 16.5574 97.7635 16.969 97.7635 17.4492V23.0826H96.7346Z" fill="#3278CB"/>
<path d="M114.349 17.9637H105.372C105.372 19.267 105.775 20.3302 106.581 21.1534C107.404 21.9765 108.39 22.3881 109.539 22.3881C110.362 22.3881 111.091 22.1737 111.725 21.745C112.36 21.2991 112.849 20.7161 113.192 19.9958L114.066 20.5103C113.672 21.2648 113.097 21.9336 112.343 22.5167C111.588 23.0826 110.628 23.3656 109.462 23.3656C107.867 23.3656 106.606 22.8511 105.68 21.8222C104.754 20.7761 104.291 19.4642 104.291 17.8865C104.291 16.1544 104.789 14.7997 105.783 13.8222C106.795 12.8447 107.995 12.3559 109.384 12.3559C110.808 12.3559 111.991 12.879 112.934 13.9251C113.878 14.9712 114.349 16.3174 114.349 17.9637ZM105.449 16.9862H113.269C113.132 15.9229 112.703 15.0483 111.983 14.3624C111.279 13.6764 110.413 13.3334 109.384 13.3334C108.338 13.3334 107.455 13.685 106.735 14.3881C106.015 15.074 105.586 15.9401 105.449 16.9862Z" fill="#3278CB"/>
<path d="M116.642 5.92507H117.877L122.61 20.4846L128.81 4.99902L134.623 20.4846L139.999 5.92507H141.234L134.623 23.7257L128.81 8.13729L122.43 23.7257L116.642 5.92507Z" fill="#3278CB"/>
<path d="M152.007 14.4138V12.5874H153.036V23.0826H152.007V21.2048C151.064 22.6453 149.701 23.3656 147.917 23.3656C146.494 23.3656 145.285 22.8597 144.29 21.8479C143.295 20.8361 142.798 19.4985 142.798 17.835C142.798 16.2059 143.27 14.8854 144.213 13.8736C145.156 12.8618 146.391 12.3559 147.917 12.3559C149.666 12.3559 151.03 13.0419 152.007 14.4138ZM147.968 13.3334C146.854 13.3334 145.893 13.7364 145.087 14.5424C144.281 15.3313 143.878 16.4031 143.878 17.7579C143.878 19.0097 144.247 20.0987 144.985 21.0247C145.722 21.9336 146.725 22.3881 147.994 22.3881C149.246 22.3881 150.232 21.9422 150.952 21.0505C151.69 20.1416 152.058 19.044 152.058 17.7579C152.058 16.3345 151.638 15.2455 150.798 14.491C149.958 13.7193 149.015 13.3334 147.968 13.3334Z" fill="#3278CB"/>
<path d="M159.149 28.999L161.618 23.2627L156.628 12.5874H157.811L162.21 21.9251L166.042 12.5874H167.226L160.332 28.999H159.149Z" fill="#3278CB"/>
</svg>
