<svg width="24" height="24" viewBox="0 0 24 24" fill="none" xmlns="http://www.w3.org/2000/svg">
<path d="M13.1242 0V3.85263H11.2295V0H13.1242ZM12.8968 20.6274V24H11.0147V20.6274H12.8968ZM15.4232 16.6358C15.4232 16.1305 15.3095 15.6758 15.0821 15.2716C14.8547 14.8674 14.48 14.4968 13.9579 14.16C13.4358 13.8232 12.7368 13.5116 11.8611 13.2253C10.8 12.8968 9.88211 12.4968 9.10737 12.0253C8.34105 11.5537 7.74737 10.9684 7.32632 10.2695C6.91368 9.57053 6.70737 8.72421 6.70737 7.73053C6.70737 6.69474 6.93053 5.8021 7.37684 5.05263C7.82316 4.30316 8.45474 3.72632 9.27158 3.32211C10.0884 2.91789 11.0484 2.71579 12.1516 2.71579C13.0105 2.71579 13.7768 2.84632 14.4505 3.10737C15.1242 3.36 15.6926 3.73895 16.1558 4.24421C16.6274 4.74947 16.9853 5.36842 17.2295 6.10105C17.4821 6.83368 17.6084 7.68 17.6084 8.64H15.2842C15.2842 8.07579 15.2168 7.55789 15.0821 7.08632C14.9474 6.61474 14.7453 6.20632 14.4758 5.86105C14.2063 5.50737 13.8779 5.23789 13.4905 5.05263C13.1032 4.85895 12.6568 4.7621 12.1516 4.7621C11.4442 4.7621 10.8589 4.88421 10.3958 5.12842C9.94105 5.37263 9.60421 5.71789 9.38526 6.16421C9.16632 6.60211 9.05684 7.11158 9.05684 7.69263C9.05684 8.23158 9.16632 8.70316 9.38526 9.10737C9.60421 9.51158 9.97474 9.87789 10.4968 10.2063C11.0274 10.5263 11.7558 10.8421 12.6821 11.1537C13.7684 11.4989 14.6905 11.9074 15.4484 12.3789C16.2063 12.8421 16.7832 13.4147 17.1789 14.0968C17.5747 14.7705 17.7726 15.6084 17.7726 16.6105C17.7726 17.6968 17.5284 18.6147 17.04 19.3642C16.5516 20.1053 15.8653 20.6695 14.9811 21.0568C14.0968 21.4442 13.0611 21.6379 11.8737 21.6379C11.1579 21.6379 10.4505 21.5411 9.75158 21.3474C9.05263 21.1537 8.42105 20.8379 7.85684 20.4C7.29263 19.9537 6.84211 19.3684 6.50526 18.6442C6.16842 17.9116 6 17.0147 6 15.9537H8.34947C8.34947 16.6695 8.45053 17.2632 8.65263 17.7347C8.86316 18.1979 9.14105 18.5684 9.48632 18.8463C9.83158 19.1158 10.2105 19.3095 10.6232 19.4274C11.0442 19.5368 11.4611 19.5916 11.8737 19.5916C12.6316 19.5916 13.2716 19.4737 13.7937 19.2379C14.3242 18.9937 14.7284 18.6484 15.0063 18.2021C15.2842 17.7558 15.4232 17.2337 15.4232 16.6358Z" fill="black"/>
</svg>
