<svg width="41" height="29" viewBox="0 0 41 29" fill="none" xmlns="http://www.w3.org/2000/svg">
<path d="M8.34919 6.23642C7.89401 6.23642 7.56108 6.66579 7.67444 7.10663L13.0901 28.1674C13.1865 28.5424 13.5246 28.8046 13.9118 28.8046C14.3098 28.8046 14.6543 28.528 14.7403 28.1394L19.2615 7.70143C19.3739 7.19333 19.8244 6.83163 20.3448 6.83163C20.867 6.83163 21.3185 7.19577 21.4291 7.70611L25.836 28.0424C25.9324 28.4872 26.3259 28.8046 26.781 28.8046C27.226 28.8046 27.6136 28.5009 27.7199 28.0688L32.8958 7.04179C32.9966 6.63212 32.6865 6.23642 32.2646 6.23642C31.9653 6.23642 31.7047 6.44084 31.6334 6.73155L28.0521 21.3286C27.9255 21.8448 27.4627 22.2077 26.9312 22.2077C26.3883 22.2077 25.9189 21.8295 25.8034 21.299L21.4288 1.20346C21.3184 0.695931 20.8691 0.333984 20.3497 0.333984C19.8276 0.333984 19.3768 0.699612 19.2691 1.21048L15.0348 21.2894C14.9219 21.8246 14.4496 22.2077 13.9026 22.2077C13.3748 22.2077 12.9138 21.8505 12.7821 21.3394L9.02384 6.75922C8.94452 6.45148 8.66699 6.23642 8.34919 6.23642Z" fill="#3278CB"/>
<path d="M0.333344 17.9798C0.333344 17.5157 0.709549 17.1395 1.17362 17.1395H39.8264C40.2905 17.1395 40.6667 17.5157 40.6667 17.9798C40.6667 18.4439 40.2905 18.8201 39.8264 18.8201H1.17362C0.709548 18.8201 0.333344 18.4439 0.333344 17.9798Z" fill="#3278CB"/>
<path d="M5.07878 14.6187C5.07878 14.1546 5.45499 13.7784 5.91906 13.7784H36.1691C36.6331 13.7784 37.0093 14.1546 37.0093 14.6187C37.0093 15.0828 36.6331 15.459 36.1691 15.459H5.91906C5.45499 15.459 5.07878 15.0828 5.07878 14.6187Z" fill="#3278CB"/>
</svg>
