<svg width="24" height="24" viewBox="0 0 24 24" fill="none" xmlns="http://www.w3.org/2000/svg">
<g clip-path="url(#clip0_361_6710)">
<path d="M22.5938 11.4957V8.6662C22.5938 7.27608 21.4876 6.14006 20.1094 6.09047V4.3537C20.1094 3.44906 19.3734 2.71308 18.4688 2.71308H13.952L13.3687 1.09181C13.22 0.678375 12.9189 0.348 12.5211 0.161578C12.1232 -0.0248905 11.6767 -0.0447655 11.2638 0.105516L3.0675 3.08869C2.65509 3.23878 2.32608 3.54061 2.14102 3.93858C1.95595 4.33655 1.93716 4.78266 2.08814 5.19478L2.41744 6.09361C1.07048 6.17691 0 7.29862 0 8.6662V21.4162C0 22.8378 1.15655 23.9943 2.57812 23.9943H20.0156C21.4372 23.9943 22.5938 22.8378 22.5938 21.4162V18.4929C23.3877 18.3788 24 17.6944 24 16.8693V13.1193C24 12.2943 23.3877 11.6098 22.5938 11.4957ZM22.5938 16.8693C22.5938 16.9986 22.4886 17.1037 22.3594 17.1037H18.6094C17.4463 17.1037 16.5 16.1574 16.5 14.9943C16.5 13.8312 17.4463 12.885 18.6094 12.885H22.3594C22.4886 12.885 22.5938 12.9901 22.5938 13.1193V16.8693ZM3.40856 4.71103C3.37945 4.63158 3.40078 4.5645 3.41611 4.53155C3.43144 4.49864 3.46898 4.43906 3.54848 4.41014L11.7448 1.42697C11.8244 1.39805 11.8914 1.41956 11.9244 1.43498C11.9573 1.45041 12.0168 1.48819 12.0455 1.56788L12.4575 2.71312H12.1406C11.236 2.71312 10.5 3.44911 10.5 4.35375V6.08813H3.91308L3.40856 4.71103ZM18.7031 4.3537V6.08808H11.9062V4.3537C11.9062 4.22447 12.0114 4.11933 12.1406 4.11933H18.4688C18.598 4.11933 18.7031 4.22447 18.7031 4.3537ZM20.0156 22.5881H2.57812C1.93195 22.5881 1.40625 22.0624 1.40625 21.4162V8.6662C1.40625 8.02003 1.93195 7.49433 2.57812 7.49433H20.0156C20.6618 7.49433 21.1875 8.02003 21.1875 8.6662V11.4787H18.6094C16.6709 11.4787 15.0938 13.0558 15.0938 14.9943C15.0938 16.9328 16.6709 18.51 18.6094 18.51H21.1875V21.4162C21.1875 22.0624 20.6618 22.5881 20.0156 22.5881Z" fill="black"/>
<path d="M18.6094 15.6974C18.9977 15.6974 19.3125 15.3826 19.3125 14.9943C19.3125 14.606 18.9977 14.2912 18.6094 14.2912C18.221 14.2912 17.9062 14.606 17.9062 14.9943C17.9062 15.3826 18.221 15.6974 18.6094 15.6974Z" fill="black"/>
</g>
<defs>
<clipPath id="clip0_361_6710">
<rect width="24" height="24" fill="white"/>
</clipPath>
</defs>
</svg>
