<svg width="24" height="24" viewBox="0 0 24 24" fill="none" xmlns="http://www.w3.org/2000/svg">
<g clip-path="url(#clip0_361_6698)">
<path d="M23.8299 14.3549L22.1741 12.423C23.3557 11.09 23.9992 9.46402 23.9992 7.78135C23.9992 3.42174 19.7696 0.000335693 14.812 0.000335693C9.77209 0.000335693 5.6717 3.49088 5.6717 7.78135C5.6717 7.88912 5.67526 7.99716 5.68056 8.10512C2.32656 9.43787 1.12136e-05 12.3108 1.12136e-05 15.6327C1.12136e-05 17.4945 0.711199 19.2809 2.01601 20.7284L0.173964 22.8335C-0.00767629 23.0411 -0.0511763 23.3358 0.0628706 23.587C0.176871 23.8383 0.42723 23.9996 0.703136 23.9996H10.5934C10.6717 23.9996 10.9181 23.955 10.9684 23.9503C13.2879 23.7363 15.4379 22.8258 17.0534 21.3671C18.7591 19.827 19.7684 17.7648 19.7321 15.5155H23.2961C23.8956 15.5155 24.2201 14.8101 23.8299 14.3549ZM10.7341 22.5592C10.6726 22.5642 10.4601 22.5826 10.4177 22.5934H2.25264L3.50167 21.1659C3.7501 20.882 3.73018 20.4527 3.45653 20.193C2.13437 18.9382 1.40621 17.3186 1.40621 15.6327C1.40621 11.8212 5.21176 8.7189 9.89031 8.7189C14.5426 8.7189 18.3275 11.8204 18.3275 15.6327C18.3275 19.197 15.0071 22.2101 10.7341 22.5592ZM19.5701 14.1094C18.7217 10.1978 14.6646 7.31269 9.89031 7.31269C8.91428 7.31269 7.97111 7.43284 7.07987 7.65544C7.16162 4.19827 10.5985 1.40663 14.812 1.40663C19.1025 1.40663 22.593 4.26634 22.593 7.7814C22.593 9.28496 21.9345 10.7434 20.7386 11.888C20.4689 12.1462 20.448 12.5701 20.691 12.8535L21.7674 14.1094H19.5701Z" fill="black"/>
<path d="M5.67168 14.1093C4.89632 14.1093 4.26547 14.7402 4.26547 15.5155C4.26547 16.2909 4.89632 16.9217 5.67168 16.9217C6.44704 16.9217 7.07788 16.2909 7.07788 15.5155C7.07788 14.7402 6.44708 14.1093 5.67168 14.1093Z" fill="black"/>
<path d="M9.8903 14.1093C9.11494 14.1093 8.4841 14.7402 8.4841 15.5155C8.4841 16.2909 9.11494 16.9217 9.8903 16.9217C10.6657 16.9217 11.2965 16.2909 11.2965 15.5155C11.2965 14.7402 10.6657 14.1093 9.8903 14.1093Z" fill="black"/>
<path d="M14.1089 14.1093C13.3335 14.1093 12.7027 14.7402 12.7027 15.5155C12.7027 16.2909 13.3335 16.9217 14.1089 16.9217C14.8843 16.9217 15.5151 16.2909 15.5151 15.5155C15.5151 14.7402 14.8843 14.1093 14.1089 14.1093Z" fill="black"/>
</g>
<defs>
<clipPath id="clip0_361_6698">
<rect width="24" height="24" fill="white"/>
</clipPath>
</defs>
</svg>
