<svg width="24" height="24" viewBox="0 0 24 24" fill="none" xmlns="http://www.w3.org/2000/svg">
<path d="M5.50859 8.48654C5.53766 8.50117 5.57202 8.50075 5.60071 8.48541L15.2633 3.31887C15.3347 3.28066 15.3334 3.17779 15.2611 3.14136L12.045 1.52263C12.0167 1.50839 11.9834 1.50839 11.9551 1.52263L1.99214 6.53768C1.91876 6.57462 1.91875 6.67938 1.99214 6.71632L5.50859 8.48654Z" fill="#575E71"/>
<path d="M18.4795 4.76146C18.4505 4.74683 18.4161 4.74726 18.3874 4.7626L8.72486 9.92914C8.65341 9.96735 8.65467 10.0702 8.72704 10.1066L11.9551 11.7317C11.9834 11.746 12.0167 11.746 12.045 11.7317L22.008 6.71633C22.0814 6.67939 22.0814 6.57462 22.008 6.53768L18.4795 4.76146Z" fill="#575E71"/>
<path d="M11.7188 12.3072C11.7188 12.2694 11.6975 12.2349 11.6637 12.2179L8.39496 10.5726C8.32846 10.5391 8.25 10.5874 8.25 10.6619V14.0933C8.25 14.1825 8.14195 14.2271 8.07905 14.1638L6.77933 12.8553C6.76056 12.8364 6.73502 12.8257 6.70838 12.8257H5.35C5.29477 12.8257 5.25 12.781 5.25 12.7257V9.05111C5.25 9.01333 5.22871 8.97877 5.19496 8.96178L1.64496 7.17507C1.57845 7.1416 1.5 7.18994 1.5 7.26439V17.2945C1.5 17.3323 1.52129 17.3668 1.55504 17.3838L11.5738 22.427C11.6403 22.4605 11.7188 22.4122 11.7188 22.3377V12.3072Z" fill="#575E71"/>
<path d="M12.3363 12.2179C12.3025 12.2349 12.2812 12.2694 12.2812 12.3072V22.3377C12.2812 22.4122 12.3597 22.4605 12.4262 22.427L22.445 17.3838C22.4787 17.3668 22.5 17.3323 22.5 17.2945V7.2644C22.5 7.18994 22.4215 7.1416 22.355 7.17508L12.3363 12.2179Z" fill="#575E71"/>
</svg>
