<svg width="24" height="24" viewBox="0 0 24 24" fill="none" xmlns="http://www.w3.org/2000/svg">
<path d="M12.8145 3V5.88947H11.3934V3H12.8145ZM12.644 18.4705V21H11.2323V18.4705H12.644ZM14.5388 15.4768C14.5388 15.0979 14.4535 14.7568 14.283 14.4537C14.1124 14.1505 13.8314 13.8726 13.4398 13.62C13.0482 13.3674 12.524 13.1337 11.8671 12.9189C11.0713 12.6726 10.3828 12.3726 9.80178 12.0189C9.22703 11.6653 8.78175 11.2263 8.46596 10.7021C8.15647 10.1779 8.00173 9.54316 8.00173 8.79789C8.00173 8.02105 8.1691 7.35158 8.50385 6.78947C8.8386 6.22737 9.31229 5.79474 9.92494 5.49158C10.5376 5.18842 11.2576 5.03684 12.085 5.03684C12.7292 5.03684 13.304 5.13474 13.8093 5.33053C14.3145 5.52 14.7409 5.80421 15.0882 6.18316C15.4419 6.56211 15.7104 7.02632 15.8935 7.57579C16.083 8.12526 16.1777 8.76 16.1777 9.48H14.4345C14.4345 9.05684 14.384 8.66842 14.283 8.31474C14.1819 7.96105 14.0303 7.65474 13.8282 7.39579C13.6261 7.13053 13.3798 6.92842 13.0892 6.78947C12.7987 6.64421 12.464 6.57158 12.085 6.57158C11.5545 6.57158 11.1155 6.66316 10.7681 6.84632C10.4271 7.02947 10.1744 7.28842 10.0102 7.62316C9.84599 7.95158 9.76389 8.33368 9.76389 8.76947C9.76389 9.17368 9.84599 9.52737 10.0102 9.83053C10.1744 10.1337 10.4523 10.4084 10.8439 10.6547C11.2418 10.8947 11.7882 11.1316 12.4829 11.3653C13.2977 11.6242 13.9893 11.9305 14.5577 12.2842C15.1261 12.6316 15.5588 13.0611 15.8556 13.5726C16.1525 14.0779 16.3009 14.7063 16.3009 15.4579C16.3009 16.2726 16.1177 16.9611 15.7514 17.5232C15.3851 18.0789 14.8703 18.5021 14.2072 18.7926C13.544 19.0832 12.7671 19.2284 11.8766 19.2284C11.3397 19.2284 10.8092 19.1558 10.285 19.0105C9.76073 18.8653 9.28703 18.6284 8.86386 18.3C8.44069 17.9653 8.10279 17.5263 7.85015 16.9832C7.59751 16.4337 7.47119 15.7611 7.47119 14.9653H9.23334C9.23334 15.5021 9.30914 15.9474 9.46072 16.3011C9.61862 16.6484 9.82704 16.9263 10.086 17.1347C10.345 17.3368 10.6292 17.4821 10.9387 17.5705C11.2545 17.6526 11.5671 17.6937 11.8766 17.6937C12.445 17.6937 12.925 17.6053 13.3166 17.4284C13.7145 17.2453 14.0177 16.9863 14.2261 16.6516C14.4345 16.3168 14.5388 15.9253 14.5388 15.4768Z" fill="#575E71"/>
</svg>
