<svg width="41" height="40" viewBox="0 0 41 40" fill="none" xmlns="http://www.w3.org/2000/svg">
<path fill-rule="evenodd" clip-rule="evenodd" d="M3.44995 19.9997C3.44995 10.7949 10.9119 3.33301 20.1166 3.33301C24.537 3.33301 28.7761 5.08896 31.9018 8.21456C35.0273 11.3402 36.7833 15.5794 36.7833 19.9997C36.7833 29.2043 29.3213 36.6663 20.1166 36.6663C10.9119 36.6663 3.44995 29.2043 3.44995 19.9997ZM17.9666 26.183L27.9666 16.183C28.6201 15.5295 28.6201 14.4699 27.9666 13.8163C27.3131 13.1628 26.2535 13.1628 25.6 13.8163L16.7833 22.6497L14.6333 20.483C14.2105 20.0602 13.5943 19.8952 13.0168 20.0498C12.4393 20.2047 11.9882 20.6557 11.8335 21.2332C11.6788 21.8107 11.8439 22.4268 12.2666 22.8497L15.6 26.183C15.9129 26.4985 16.3389 26.676 16.7833 26.676C17.2276 26.676 17.6536 26.4985 17.9666 26.183Z" fill="#00842F"/>
</svg>
