<svg width="24" height="24" viewBox="0 0 24 24" fill="none" xmlns="http://www.w3.org/2000/svg">
<path d="M14.4956 7.13283C14.3001 7.13283 14.1416 6.97435 14.1416 6.77885V5.71691C14.1416 5.52141 14.3001 5.36292 14.4956 5.36292C14.6911 5.36292 14.8496 5.52141 14.8496 5.71691V6.77885C14.8496 6.97435 14.6911 7.13283 14.4956 7.13283ZM8.83186 10.1112L9.53982 10.8192V12.7966H8.12389V10.8192L8.83186 10.1112ZM7.9469 2.35407C7.9469 2.15857 8.10539 2.00009 8.30088 2.00009H15.0265C15.222 2.00009 15.3805 2.15857 15.3805 2.35407V4.30098C15.3805 4.49648 15.222 4.65496 15.0265 4.65496H14.1416C13.9461 4.65496 13.7876 4.49648 13.7876 4.30098V3.59301C13.7876 3.39751 13.6291 3.23903 13.4336 3.23903H9.89381C9.69831 3.23903 9.53982 3.39751 9.53982 3.59301V4.30098C9.53982 4.49648 9.38134 4.65496 9.18584 4.65496H8.30088C8.10539 4.65496 7.9469 4.49648 7.9469 4.30098V2.35407ZM8.83186 5.36292C9.02736 5.36292 9.18584 5.52141 9.18584 5.71691V6.77885C9.18584 6.97435 9.02736 7.13283 8.83186 7.13283C8.63636 7.13283 8.47788 6.97435 8.47788 6.77885V5.71691C8.47788 5.52141 8.63636 5.36292 8.83186 5.36292ZM7.76991 7.8408H8.47788V9.46416L7.62336 10.3187C7.49058 10.4514 7.41597 10.6315 7.41593 10.8192V12.7966C7.41593 13.1875 7.7329 13.5045 8.12389 13.5045H9.53982C9.93082 13.5045 10.2478 13.1875 10.2478 12.7966V10.8196C10.2478 10.6317 10.1732 10.4515 10.0404 10.3187L9.18584 9.46416V7.8408H15.5575C16.535 7.8408 17.3274 8.63322 17.3274 9.61071V15.9824C17.3274 16.1779 17.169 16.3364 16.9735 16.3364H9.89381C9.69831 16.3364 9.53982 16.4949 9.53982 16.6904C9.53982 16.8859 9.69831 17.0443 9.89381 17.0443H16.9735C17.169 17.0443 17.3274 17.2028 17.3274 17.3983C17.3274 17.5938 17.169 17.7523 16.9735 17.7523H6.35398C6.15848 17.7523 6 17.5938 6 17.3983C6 17.2028 6.15848 17.0443 6.35398 17.0443H8.12389C8.31939 17.0443 8.47788 16.8859 8.47788 16.6904C8.47788 16.4949 8.31939 16.3364 8.12389 16.3364H6.35398C6.15848 16.3364 6 16.1779 6 15.9824V9.61071C6 8.63322 6.79242 7.8408 7.76991 7.8408ZM8.47788 21.4691C8.47788 21.7624 8.24015 22.0001 7.9469 22.0001C7.65365 22.0001 7.41593 21.7624 7.41593 21.4691V20.5842H8.47788V21.4691ZM15.9115 21.4691C15.9115 21.7624 15.6738 22.0001 15.3805 22.0001C15.0873 22.0001 14.8496 21.7624 14.8496 21.4691V20.5842H15.9115V21.4691ZM16.6195 19.8762H6.70796C6.31697 19.8762 6 19.5592 6 19.1682V18.8143C6 18.6188 6.15848 18.4603 6.35398 18.4603H16.9735C17.169 18.4603 17.3274 18.6188 17.3274 18.8143V19.1682C17.3274 19.5592 17.0105 19.8762 16.6195 19.8762Z" fill="#575E71"/>
</svg>
